<svg id="Layer_1" data-name="Layer 1" xmlns="http://www.w3.org/2000/svg" viewBox="0 0 851 191"><defs><style>.cls-1{fill:none;stroke:#000;stroke-miterlimit:10;stroke-width:5px;}.cls-2{fill:#a8e5dc;}.cls-3{fill:#4dc7bc;}.cls-4{fill:#fff;}.cls-5{fill:#218e81;}.cls-6{fill:#fcffff;}.cls-7{fill:#117264;}.cls-8{fill:#f7d9a9;}.cls-9{fill:#fcc156;}.cls-10{fill:#b57b1d;}.cls-11{fill:#7a4e0f;}</style></defs><title>Artboard 1</title><rect class="cls-1" x="16.67" y="15.92" width="817.33" height="158.17"/><path d="M63.67,100.2h-14v52.56H34.92V36.81H49.65V88.34H62.31l42.13-51.53h16.88L75.69,93l48.9,59.73H106.51Z"/><path d="M370.48,67a58.86,58.86,0,0,0-8.37-8.7l.11-.09-27.74-22h0a40.94,40.94,0,0,0-26.33-9.65c-20.45,0-37.31,15.24-41.26,35.41a22.68,22.68,0,0,0-39.58,0C223.33,41.8,206.47,26.56,186,26.56a40.94,40.94,0,0,0-26.33,9.65h0l-27.74,22,.11.09a58.89,58.89,0,0,0-20.86,45.18,59.47,59.47,0,0,0,118.28,8.87l.06-1.55.63.69a24.45,24.45,0,0,0,33.93-1.56l.42-.67.2,3.09A59.47,59.47,0,1,0,370.48,67Z"/><circle class="cls-2" cx="324.88" cy="105.62" r="30.85"/><circle class="cls-3" cx="324.88" cy="105.62" r="23.32"/><circle class="cls-4" cx="246.65" cy="91.96" r="9.65"/><circle class="cls-5" cx="324.88" cy="105.62" r="16.02"/><circle class="cls-6" cx="324.54" cy="105.62" r="36.27"/><circle class="cls-2" cx="324.54" cy="105.62" r="29.74"/><circle class="cls-3" cx="324.54" cy="105.62" r="23.36"/><circle class="cls-5" cx="324.54" cy="105.62" r="16.99"/><circle class="cls-7" cx="324.54" cy="105.62" r="10.62"/><circle class="cls-6" cx="168.46" cy="105.62" r="36.27"/><circle class="cls-8" cx="168.46" cy="105.62" r="29.74"/><circle class="cls-9" cx="168.46" cy="105.62" r="23.36"/><circle class="cls-10" cx="168.46" cy="105.62" r="16.99"/><circle class="cls-11" cx="168.46" cy="105.62" r="10.62"/><path class="cls-6" d="M311.86,158c-2.17,0-4.32-.14-6.45-.33a58.93,58.93,0,0,0,74.83-44.82A74.36,74.36,0,0,1,311.86,158Z"/><path class="cls-6" d="M158.5,158c-2.18,0-4.32-.14-6.45-.33a58.93,58.93,0,0,0,74.83-44.82A74.37,74.37,0,0,1,158.5,158Z"/><path class="cls-6" d="M324.46,63.83a45.74,45.74,0,0,1,5.89.43,36.2,36.2,0,0,0-48.51,30.5A44.85,44.85,0,0,1,324.46,63.83Z"/><path class="cls-6" d="M169.83,63.83a45.74,45.74,0,0,1,5.89.43,36.19,36.19,0,0,0-48.5,30.5A44.84,44.84,0,0,1,169.83,63.83Z"/><path d="M473.65,112q-1.9,17.54-12.8,28t-30.1,10.45q-20.08,0-32.21-13.71t-12.12-35.73V80.45q0-21.93,12.12-35.72t32.21-13.8Q450.29,30.93,461,41t12.64,28.59H458.9q-2-13.24-8.49-20t-19.66-6.74q-13.71,0-21.64,10.57t-7.94,26.83v20.65q0,16.43,7.94,27t21.64,10.57q13.25,0,19.7-6.54t8.45-20Z"/><path d="M574.62,148.71H559.87V97.2H502.06v51.51H487.31V32.61h14.75v52.7h57.81V32.61h14.75Z"/><path d="M615.34,148.71H600.58V32.61h14.76Z"/><path d="M717,44.57h-36.6V148.71H665.59V44.57H629v-12h88Z"/><path d="M785.59,117.77H736.71l-11.4,30.94H710.24l44.81-116.1h12.76l44.09,116.1H796.83Zm-44.5-11.88h40.19l-19.93-55Z"/></svg>