<svg id="Layer_1" data-name="Layer 1" xmlns="http://www.w3.org/2000/svg" viewBox="0 0 830 171"><defs><style>.cls-1{fill:none;stroke:#000;stroke-miterlimit:10;}.cls-2{fill:#a8e5dc;}.cls-3{fill:#4dc7bc;}.cls-4{fill:#fff;}.cls-5{fill:#218e81;}.cls-6{fill:#fcffff;}.cls-7{fill:#117264;}.cls-8{fill:#f7d9a9;}.cls-9{fill:#fcc156;}.cls-10{fill:#b57b1d;}.cls-11{fill:#7a4e0f;}</style></defs><title>Artboard 1</title><rect class="cls-1" x="5.67" y="6.92" width="817.33" height="158.17"/><path d="M52.67,91.2h-14v52.56H23.92V27.81H38.65V79.34H51.31L93.44,27.81h16.88L64.69,84l48.9,59.73H95.51Z"/><path d="M359.48,58a58.86,58.86,0,0,0-8.37-8.7l.11-.09-27.74-22h0a40.94,40.94,0,0,0-26.33-9.65c-20.45,0-37.31,15.24-41.26,35.41a22.68,22.68,0,0,0-39.58,0C212.33,32.8,195.47,17.56,175,17.56a40.94,40.94,0,0,0-26.33,9.65h0l-27.74,22,.11.09a58.89,58.89,0,0,0-20.86,45.18,59.47,59.47,0,0,0,118.28,8.87l.06-1.55.63.69a24.45,24.45,0,0,0,33.93-1.56l.42-.67.2,3.09A59.47,59.47,0,1,0,359.48,58Z"/><circle class="cls-2" cx="313.88" cy="96.62" r="30.85"/><circle class="cls-3" cx="313.88" cy="96.62" r="23.32"/><circle class="cls-4" cx="235.65" cy="82.96" r="9.65"/><circle class="cls-5" cx="313.88" cy="96.62" r="16.02"/><circle class="cls-6" cx="313.54" cy="96.62" r="36.27"/><circle class="cls-2" cx="313.54" cy="96.62" r="29.74"/><circle class="cls-3" cx="313.54" cy="96.62" r="23.36"/><circle class="cls-5" cx="313.54" cy="96.62" r="16.99"/><circle class="cls-7" cx="313.54" cy="96.62" r="10.62"/><circle class="cls-6" cx="157.46" cy="96.62" r="36.27"/><circle class="cls-8" cx="157.46" cy="96.62" r="29.74"/><circle class="cls-9" cx="157.46" cy="96.62" r="23.36"/><circle class="cls-10" cx="157.46" cy="96.62" r="16.99"/><circle class="cls-11" cx="157.46" cy="96.62" r="10.62"/><path class="cls-6" d="M300.86,149c-2.17,0-4.32-.14-6.45-.33a58.93,58.93,0,0,0,74.83-44.82A74.36,74.36,0,0,1,300.86,149Z"/><path class="cls-6" d="M147.5,149c-2.18,0-4.32-.14-6.45-.33a58.93,58.93,0,0,0,74.83-44.82A74.37,74.37,0,0,1,147.5,149Z"/><path class="cls-6" d="M313.46,54.83a45.74,45.74,0,0,1,5.89.43,36.2,36.2,0,0,0-48.51,30.5A44.85,44.85,0,0,1,313.46,54.83Z"/><path class="cls-6" d="M158.83,54.83a45.74,45.74,0,0,1,5.89.43,36.19,36.19,0,0,0-48.5,30.5A44.84,44.84,0,0,1,158.83,54.83Z"/><path d="M462.65,103q-1.9,17.53-12.8,28t-30.1,10.45q-20.08,0-32.21-13.71T375.42,91.94V71.45q0-21.93,12.12-35.72t32.21-13.8Q439.29,21.93,450,32t12.64,28.59H447.9q-2-13.24-8.49-20t-19.66-6.74q-13.71,0-21.64,10.57t-7.94,26.83V91.94q0,16.43,7.94,27t21.64,10.57q13.25,0,19.7-6.54t8.45-20Z"/><path d="M563.62,139.71H548.87V88.2H491.06v51.51H476.31V23.61h14.75v52.7h57.81V23.61h14.75Z"/><path d="M604.34,139.71H589.58V23.61h14.76Z"/><path d="M706,35.57h-36.6V139.71H654.59V35.57H618v-12h88Z"/><path d="M774.59,108.77H725.71l-11.4,30.94H699.24l44.81-116.1h12.76l44.09,116.1H785.83Zm-44.5-11.88h40.19l-19.93-55Z"/></svg>