<svg id="Layer_1" data-name="Layer 1" xmlns="http://www.w3.org/2000/svg" viewBox="0 0 200 200"><title>TVFAV0</title><path d="M111.27,177.5H70q-8.4,0-16.79,0c-3.92,0-7.84.05-11.76.05a9,9,0,0,1-1.79-.23,3.84,3.84,0,0,1-3.15-2.6c-1-3.28-2.68-6.29-3.62-9.59a15.34,15.34,0,0,1-.7-6.09,9.47,9.47,0,0,1,4.37-6.75,25.2,25.2,0,0,1,5-2.63l90-36.88a20.3,20.3,0,0,1,6.41-1.67,9.79,9.79,0,0,1,10.14,6c1.6,3.33,2.94,6.78,4.37,10.18,5.72,13.64,11.24,27.35,16.72,41.08a15.68,15.68,0,0,1,1,4.73c.1,1.2.09,2.41.22,3.61.07.72-.18.85-.84.83-1.65,0-3.3,0-4.94,0H111.27Z" style="fill:#218e81"/><path d="M193.41,177.48c-1.45,0-2.91,0-4.36,0a3.28,3.28,0,0,1-3.34-2.29Q177.33,154.64,169,134.1q-5.84-14.3-11.66-28.6a22.83,22.83,0,0,0-2.54-4.59C152,97,148.23,95.69,143.6,96.57c-3.29.62-6.29,2.05-9.35,3.3l-51.32,21L26.28,144.07a24.74,24.74,0,0,0-5.74,3.17,9.94,9.94,0,0,0-3.94,10.37c.6,3.49,2.12,6.67,3.41,9.92,1.23,3.08,2.49,6.15,3.75,9.21.23.56.26.81-.5.8-3.09,0-6.19.09-9.28,0a3.5,3.5,0,0,1-3.26-2c-2.9-6.47-5.9-12.93-8-19.72s1.09-13.08,7.61-16.32c3.81-1.88,7.81-3.32,11.74-4.93q23.22-9.53,46.46-19c5.78-2.36,11.59-4.65,17.37-7a18,18,0,0,0,6.7-4.21,11.76,11.76,0,0,0,2.81-6.44c.25-1.52-.31-2.26-1.52-3.07C82.23,87,70.6,79.06,58.9,71.26a4.72,4.72,0,0,0-4.66-.49,9.3,9.3,0,0,1-5.63.62,8.06,8.06,0,0,1-4.1-13.16,7.34,7.34,0,0,1,7.86-2.42,7.38,7.38,0,0,1,6,6.06c.23,1,.27,2.12.5,3.16a6,6,0,0,0,2.61,3.83q17.24,11.86,34.7,23.41a3,3,0,0,0,2.09.57c1.08-.17,2.26.15,3.21-.7.21-.19.63-.15,1-.18A7.06,7.06,0,0,0,109,86c.8-3.47,1.42-7,2.14-10.46l6.69-32.59c.15-.69.32-1.39.4-2.09a6.12,6.12,0,0,0-1.47-4.73,9.48,9.48,0,0,1-2.6-5.74c-.18-5.94,5.08-9.77,10.8-7.9,3.86,1.26,5.44,4.48,5.2,8.26-.22,3.38-2.1,5.54-5.14,6.8-.27.12-.56.21-.84.33a4,4,0,0,0-2.48,3Q118.42,56.95,115,73c-1.11,5.31-2.19,10.62-3.29,15.93-.07.33-.06.55.3.72,2.14,1.05,4.22,2.21,6.42,3.15a6.84,6.84,0,0,0,5.5,0c5.07-2.07,10.14-4.15,15.22-6.2a79.83,79.83,0,0,1,8.05-3.07c7.47-2.14,14.18,1.09,17.15,8.29q8.82,21.39,17.57,42.79,8.31,20.31,16.57,40.62c.05.13.11.26.16.38.62,1.62.42,1.94-1.25,1.94h-4Z" style="fill:#d79e3a"/></svg>